<svg width="18" height="18" viewBox="0 0 18 18" fill="none" xmlns="http://www.w3.org/2000/svg">
<path d="M0.989001 4.589C0.989001 6.083 1.488 7.161 2.471 7.794C3.277 8.314 4.211 8.392 4.697 8.392C4.815 8.392 4.91 8.386 4.976 8.382C4.976 8.382 4.822 9.386 5.566 10.378H5.532C4.243 10.378 0.0390015 10.647 0.0390015 14.105C0.0390015 17.621 3.9 17.8 4.675 17.8C4.736 17.8 4.772 17.798 4.772 17.798C4.78 17.798 4.835 17.8 4.93 17.8C5.427 17.8 6.712 17.738 7.905 17.157C9.453 16.407 10.238 15.098 10.238 13.272C10.238 11.508 9.042 10.458 8.169 9.69C7.636 9.221 7.175 8.817 7.175 8.424C7.175 8.024 7.512 7.723 7.937 7.342C8.626 6.727 9.276 5.85 9.276 4.192C9.276 2.735 9.087 1.756 7.922 1.135C8.043 1.073 8.473 1.028 8.685 0.998C9.316 0.912 10.239 0.814 10.239 0.299V0.2H5.64C5.594 0.202 0.989001 0.372 0.989001 4.589ZM8.413 13.602C8.501 15.008 7.298 16.045 5.491 16.176C3.656 16.311 2.146 15.485 2.058 14.08C2.015 13.404 2.312 12.744 2.893 12.217C3.482 11.684 4.291 11.354 5.171 11.289C5.275 11.283 5.378 11.277 5.481 11.277C7.18 11.278 8.33 12.276 8.413 13.602ZM7.212 3.626C7.663 5.214 6.982 6.872 5.896 7.179C5.77099 7.21384 5.64178 7.23133 5.512 7.231C4.518 7.231 3.533 6.225 3.167 4.838C2.963 4.062 2.98 3.38 3.214 2.726C3.443 2.081 3.857 1.648 4.377 1.501C4.502 1.466 4.631 1.448 4.762 1.448C5.962 1.448 6.734 1.946 7.212 3.626ZM15 7V4H13V7H10V9H13V12H15V9H18V7H15Z" fill="black"/>
</svg>
