<svg width="19" height="19" viewBox="0 0 19 19" fill="none" xmlns="http://www.w3.org/2000/svg">
<g clip-path="url(#clip0_2_8)">
<path d="M14.5097 11.5662V11.5354C14.5097 11.1364 14.421 10.758 14.2611 10.4191L14.2682 10.435C14.1244 10.1174 13.9212 9.83014 13.6697 9.58867L13.6689 9.58787C13.4046 9.3492 13.1083 9.14856 12.7886 8.99175L12.7656 8.98146C12.4532 8.82016 12.1284 8.68408 11.7943 8.57454L11.746 8.56029C11.4283 8.4616 11.0675 8.36686 10.6638 8.27608L9.37414 7.98C9.12661 7.92194 8.94532 7.87867 8.83027 7.85017C8.67392 7.80916 8.5203 7.7584 8.37031 7.69817L8.39722 7.70767C8.26216 7.66305 8.13577 7.59557 8.02356 7.50817L8.02593 7.51054C7.94603 7.43687 7.87818 7.35112 7.82485 7.25642L7.82247 7.25087C7.7612 7.14247 7.72927 7.01994 7.72985 6.89542V6.87879V6.87958C7.72985 6.24625 8.3236 5.92958 9.5111 5.92958H9.55306C9.87764 5.92958 10.1903 5.98421 10.4809 6.08396L10.4611 6.07762C10.7168 6.16154 10.9385 6.28187 11.134 6.43387L11.1293 6.42992C11.2945 6.56608 11.4512 6.7041 11.5995 6.84396C11.7436 6.98013 11.9059 7.09887 12.0816 7.19625L12.0935 7.20258C12.2621 7.296 12.4624 7.35062 12.6762 7.35062H12.6881H12.6873L12.7348 7.35142C13.0863 7.35142 13.4029 7.19862 13.6206 6.95558L13.6214 6.95479C13.8407 6.71096 13.9745 6.38717 13.9745 6.03171V6.00321V6.00479C13.9631 5.76095 13.8951 5.52312 13.7758 5.31013C13.6565 5.09715 13.4893 4.91486 13.2873 4.77771L13.2818 4.77454C12.7696 4.38417 12.1832 4.10239 11.5583 3.94646L11.5259 3.93933C10.8069 3.74834 10.0658 3.65278 9.32189 3.65512H9.27201H9.27439H9.25143C8.67985 3.65512 8.12489 3.72479 7.59447 3.85542L7.64197 3.84592C7.11416 3.97169 6.60709 4.17244 6.13622 4.44204L6.16393 4.427C5.69254 4.69224 5.30233 5.0809 5.03522 5.55123C4.76811 6.02156 4.63421 6.55579 4.64789 7.0965V7.09254L4.6471 7.16537C4.6471 7.61346 4.73339 8.04096 4.89093 8.43283L4.88301 8.40987C5.03818 8.78433 5.27489 9.09862 5.57176 9.34087L5.57572 9.34404C5.86151 9.57758 6.18768 9.77867 6.53839 9.93304L6.56531 9.94333C6.92235 10.0969 7.34826 10.2355 7.78843 10.336L7.83989 10.3455L9.64647 10.7888C10.169 10.8902 10.6337 11.043 11.0691 11.248L11.0327 11.233C11.2718 11.3786 11.4293 11.6375 11.4293 11.9344L11.4285 11.9779V11.9755C11.4246 12.1397 11.3772 12.2998 11.2911 12.4396C11.205 12.5794 11.0833 12.6938 10.9385 12.7712L10.9337 12.7735C10.5389 13.003 10.086 13.113 9.62985 13.0902H9.63539H9.58631C9.19681 13.0902 8.82472 13.0174 8.48272 12.8852L8.50331 12.8923C8.20715 12.7833 7.93347 12.621 7.69581 12.4133L7.69897 12.4157C7.49683 12.2305 7.30921 12.0449 7.1361 11.8592C6.96997 11.6804 6.78252 11.5228 6.57797 11.3897L6.5661 11.3826C6.36878 11.2532 6.13787 11.1844 5.90189 11.1847H5.89793C5.72456 11.1721 5.55061 11.1989 5.38901 11.2629C5.22741 11.3269 5.08232 11.4265 4.96455 11.5544L4.96376 11.5552C4.74705 11.8155 4.63426 12.1469 4.6471 12.4854V12.483C4.6471 13.243 5.15007 13.8924 6.15601 14.4313C7.27151 15.0021 8.51356 15.2808 9.76602 15.2412H9.75572H9.78106C10.3883 15.2412 10.9757 15.158 11.5322 15.0013L11.4863 15.0124C12.0302 14.8654 12.5489 14.6378 13.0253 14.3371L13.0023 14.3505C13.4535 14.066 13.8269 13.6741 14.0893 13.2097L14.098 13.1939C14.3711 12.7093 14.5138 12.1621 14.5121 11.6058V11.5615V11.5639L14.5097 11.5662ZM19 14.25C19 15.5098 18.4996 16.718 17.6088 17.6088C16.718 18.4996 15.5098 19 14.25 19H14.2152C13.1737 19.0015 12.1624 18.6502 11.3462 18.0033L11.3557 18.0104C10.7991 18.1339 10.1587 18.206 9.5016 18.2083H9.47547C8.26185 18.2083 7.1076 17.9558 6.06181 17.5006L6.11722 17.522C4.00743 16.6377 2.36314 14.9934 1.49943 12.9398L1.47885 12.8836C1.02217 11.8231 0.788541 10.68 0.79247 9.52533V9.49842V9.5C0.794845 8.84133 0.866886 8.20087 1.00147 7.58417L0.990387 7.64433C0.346792 6.83007 -0.00226966 5.82194 1.11063e-05 4.78404V4.74842V4.75C1.11063e-05 3.49022 0.500456 2.28204 1.39125 1.39124C2.28205 0.500445 3.49023 0 4.75001 0L4.78405 0C5.86864 0 6.86535 0.372875 7.65385 0.9975L7.64435 0.990375C8.25369 0.859322 8.87516 0.792982 9.49843 0.792458H9.52456C10.7382 0.792458 11.8924 1.045 12.9382 1.50021L12.8828 1.47883C14.9926 2.36312 16.6369 4.00742 17.5006 6.061L17.5212 6.11721C17.955 7.10758 18.2076 8.26183 18.2076 9.47546V9.50079V9.49921C18.2056 10.1434 18.1358 10.7855 17.9994 11.415L18.0104 11.3549C18.6535 12.1691 19.0022 13.1769 19 14.2144V14.2508V14.2492V14.25Z" fill="black"/>
</g>
<defs>
<clipPath id="clip0_2_8">
<rect width="19" height="19" fill="white"/>
</clipPath>
</defs>
</svg>
